<?xml version="1.0" encoding="UTF-8" standalone="no"?><!DOCTYPE svg PUBLIC "-//W3C//DTD SVG 1.1//EN" "http://www.w3.org/Graphics/SVG/1.1/DTD/svg11.dtd"><svg width="100%" height="100%" viewBox="0 0 375 375" version="1.1" xmlns="http://www.w3.org/2000/svg" xmlns:xlink="http://www.w3.org/1999/xlink" xml:space="preserve" xmlns:serif="http://www.serif.com/" style="fill-rule:evenodd;clip-rule:evenodd;stroke-linejoin:round;stroke-miterlimit:2;"><path d="M375,93.75l-0,187.5c-0,51.742 -42.008,93.75 -93.75,93.75l-187.5,0c-51.742,0 -93.75,-42.008 -93.75,-93.75l-0,-187.5c-0,-51.742 42.008,-93.75 93.75,-93.75l187.5,0c51.742,0 93.75,42.008 93.75,93.75Zm-276.733,155.746c-0,-12.073 -9.802,-21.875 -21.875,-21.875c-12.073,0 -21.875,9.802 -21.875,21.875l-0,40.37c-0,12.081 9.794,21.875 21.875,21.875l222.216,-0c12.081,-0 21.875,-9.794 21.875,-21.875l0,-40.37c0,-12.073 -9.802,-21.875 -21.875,-21.875c-12.073,0 -21.875,9.802 -21.875,21.875l0,18.495l-178.466,-0l-0,-18.495Zm175.319,-136.297l2.186,5.726c0.398,1.104 0.883,2.168 1.446,3.182c1.921,3.474 4.728,6.313 8.069,8.274c3.248,1.911 7.033,3.008 11.071,3.008c7.198,0 13.935,-3.541 18.017,-9.469c4.082,-5.928 4.986,-13.485 2.419,-20.209l-10.073,-26.38c-3.386,-8.868 -11.933,-14.263 -20.914,-14.071c-2.788,-0.059 -5.633,0.417 -8.39,1.492l-208.968,81.432c-8.4,3.274 -13.932,11.366 -13.932,20.382l-0,30.305c-0,12.074 9.802,21.875 21.875,21.875c12.073,0 21.875,-9.801 21.875,-21.875l-0,-15.352l175.319,-68.32Z"/></svg>